<svg width="20" height="24" viewBox="0 0 20 24" fill="none" xmlns="http://www.w3.org/2000/svg">
<path d="M0 18.4955C0.110625 17.9334 0.451875 17.5397 0.849844 17.1576C2.25469 15.8077 2.96672 14.1283 2.99719 12.1526C3.01172 11.206 2.9986 10.2585 3.00047 9.31142C3.00703 5.71761 5.43141 2.77173 8.88375 2.16094C8.91375 2.15563 8.94235 2.14357 9.00188 2.12524C9.00188 1.74603 8.9925 1.36392 9.00422 0.981815C9.01969 0.479578 9.39891 0.0675599 9.88172 0.00725289C10.3598 -0.0525717 10.8464 0.263437 10.9542 0.742999C11.0077 0.981332 10.9823 1.23752 11.0067 1.48357C11.0344 1.7605 10.9481 1.98484 10.8 2.21883C7.91672 6.76984 10.0566 12.8797 15.1036 14.5195C15.8447 14.7603 16.6045 14.893 17.3836 14.8901C17.512 14.8896 17.5941 14.919 17.6545 15.0531C18.0586 15.9563 18.6427 16.72 19.3706 17.3723C19.8164 17.7718 20.0438 18.2784 19.9913 18.8867C19.9083 19.8459 19.2122 20.5068 18.2677 20.5522C18.1819 20.5565 18.0956 20.5541 18.0099 20.5541C12.7214 20.5541 7.43344 20.543 2.145 20.5642C1.17094 20.5681 0.305625 20.2497 0.00140625 19.0247V18.495L0 18.4955Z" fill="#003B95"/>
<path d="M10 24C9.5 24 8.89032 23.7472 8.53519 23.5198C7.70988 22.9911 7.21553 22.1248 7 21H13C12.9425 21.4529 12.7998 21.8555 12.6035 22.2283C12.0903 23.2034 11 24 10 24Z" fill="#003B95"/>
</svg>
