<svg width="36" height="36" viewBox="0 0 36 36" fill="none" xmlns="http://www.w3.org/2000/svg">
<g clip-path="url(#clip0_2001_282)">
<g clip-path="url(#clip1_2001_282)">
<path d="M11.609 6C16.1936 6 20.7788 6 25.3633 6C25.4616 6.02388 25.5598 6.04776 25.6581 6.07099C27.0971 6.41046 27.9985 7.57342 27.9992 9.10166C28.0005 15.0294 28.0005 20.9571 27.9972 26.8842C27.9972 27.1327 27.9803 27.3863 27.9295 27.629C27.6386 29.0243 26.4573 29.9859 25.0144 29.9949C23.4075 30.0046 21.8012 29.9975 20.1943 29.9975C17.477 29.9975 14.7598 30.0001 12.0425 29.9962C10.6471 29.9943 9.46843 29.125 9.11893 27.842C8.91652 27.0991 9.04278 26.3408 9.00373 25.5651C9.12804 25.5651 9.22111 25.5657 9.31418 25.5651C9.82574 25.5599 10.3386 25.5735 10.8489 25.5438C11.6826 25.4954 12.3556 24.7506 12.3575 23.9078C12.3588 23.0578 11.6761 22.3105 10.8287 22.2659C10.31 22.2388 9.78995 22.253 9.26992 22.2485C9.18727 22.2479 9.10396 22.2485 9.01805 22.2485V19.658C9.11242 19.658 9.19638 19.658 9.28099 19.658C9.79255 19.6535 10.3054 19.6677 10.8157 19.6399C11.6377 19.5954 12.2391 18.9855 12.3458 18.1265C12.4343 17.4121 11.9332 16.6519 11.2036 16.4357C10.9745 16.3679 10.7246 16.3511 10.4837 16.3447C9.99821 16.3311 9.51139 16.3408 9.02391 16.3408V13.7503C9.12479 13.7503 9.21005 13.7503 9.29531 13.7503C9.79906 13.7464 10.3041 13.7612 10.8066 13.7341C11.6767 13.6883 12.3608 12.9487 12.3575 12.0891C12.3536 11.234 11.6826 10.5034 10.8235 10.4531C10.3054 10.4227 9.78474 10.4389 9.26472 10.4324C9.18271 10.4311 9.10005 10.424 9.00959 10.4189C9.00959 9.89159 9.00178 9.39207 9.01089 8.8932C9.03692 7.55405 9.96047 6.41433 11.2739 6.08971C11.3865 6.06196 11.4978 6.02969 11.609 6ZM23.5214 22.9649C23.5214 22.5099 23.5299 22.0672 23.5201 21.6244C23.4817 19.9607 22.1156 18.5944 20.4416 18.5622C19.5213 18.5441 18.5991 18.5376 17.6794 18.5641C16.562 18.5964 15.7022 19.1107 15.0845 20.0317C14.4799 20.9345 14.5879 21.9491 14.5971 22.9642H23.5214V22.9649ZM19.0618 17.6025C20.6479 17.5993 21.9294 16.324 21.9268 14.7519C21.9242 13.1785 20.6401 11.9058 19.0566 11.9071C17.4738 11.9084 16.1916 13.1843 16.1916 14.757C16.1916 16.3272 17.4816 17.6057 19.0618 17.6025Z" fill="white"/>
<path d="M10.0039 11.0027C10.3167 11.0027 10.6296 10.9958 10.9424 11.0041C11.5654 11.02 11.9972 11.4284 12 11.9935C12.0021 12.5593 11.5759 12.9767 10.9522 12.9899C10.3181 13.003 9.68333 13.0037 9.04993 12.9899C8.43262 12.9767 7.99308 12.5447 8.00008 11.99C8.00708 11.4305 8.44732 11.0193 9.06533 11.0041C9.37818 10.9965 9.69103 11.0027 10.0039 11.0027Z" fill="white"/>
<path d="M10.0112 24.9949C9.67306 24.9949 9.33425 25.0081 8.99614 24.9921C8.48372 24.9678 8.1106 24.6533 8.0196 24.1957C7.9307 23.7485 8.1498 23.293 8.56422 23.1125C8.70772 23.05 8.87293 23.0118 9.02974 23.009C9.67236 22.9979 10.3157 22.9972 10.9583 23.0062C11.3909 23.0125 11.7269 23.1986 11.9075 23.6027C12.0693 23.9637 12.0154 24.3082 11.7731 24.6192C11.5596 24.8935 11.2621 24.9928 10.9254 24.9963C10.6209 24.9997 10.3164 24.997 10.0119 24.997C10.0119 24.997 10.0119 24.9956 10.0119 24.9949H10.0112Z" fill="white"/>
<path d="M9.99429 18.9921C9.64769 18.9921 9.29969 19.0108 8.95449 18.9872C8.45244 18.9532 8.10164 18.6351 8.01691 18.1794C7.93569 17.7425 8.15205 17.2958 8.55747 17.1166C8.70802 17.0499 8.88237 17.0117 9.04691 17.009C9.6813 16.9972 10.3157 16.9978 10.9501 17.0062C11.394 17.0117 11.7364 17.2028 11.9143 17.6188C12.0739 17.9918 12.0067 18.3426 11.7455 18.6531C11.5347 18.9032 11.2498 18.9928 10.9326 18.9976C10.6196 19.0025 10.3066 18.9983 9.99359 18.9983C9.99359 18.9963 9.99359 18.9942 9.99359 18.9921H9.99429Z" fill="white"/>
</g>
</g>
<defs>
<clipPath id="clip0_2001_282">
<rect width="20" height="24" fill="white" transform="translate(8 6)"/>
</clipPath>
<clipPath id="clip1_2001_282">
<rect width="20" height="24" fill="white" transform="translate(8 6)"/>
</clipPath>
</defs>
</svg>
