<svg width="36" height="36" viewBox="0 0 36 36" fill="none" xmlns="http://www.w3.org/2000/svg">
<path d="M11.3333 24.6667H20.6667V22H11.3333V24.6667ZM11.3333 19.3333H24.6667V16.6667H11.3333V19.3333ZM11.3333 14H24.6667V11.3333H11.3333V14ZM8.66667 30C7.93333 30 7.30556 29.7389 6.78333 29.2167C6.26111 28.6944 6 28.0667 6 27.3333V8.66667C6 7.93333 6.26111 7.30556 6.78333 6.78333C7.30556 6.26111 7.93333 6 8.66667 6H27.3333C28.0667 6 28.6944 6.26111 29.2167 6.78333C29.7389 7.30556 30 7.93333 30 8.66667V27.3333C30 28.0667 29.7389 28.6944 29.2167 29.2167C28.6944 29.7389 28.0667 30 27.3333 30H8.66667ZM8.66667 27.3333H27.3333V8.66667H8.66667V27.3333Z" fill="white"/>
</svg>
