<svg width="4" height="15" viewBox="0 0 4 15" fill="none" xmlns="http://www.w3.org/2000/svg">
<g clip-path="url(#clip0_2001_109)">
<path d="M1.99082 4.0901C0.89147 4.08555 -0.00390339 3.16162 -1.28746e-05 2.03539C0.00387788 0.911446 0.907588 -0.00396466 2.0086 1.29134e-05C3.10739 0.00399049 4.00388 0.928492 3.99999 2.05415C3.9961 3.17696 3.09072 4.09464 1.99082 4.0901ZM1.99582 5.45497C3.09517 5.4527 3.99832 6.37209 3.99999 7.49547C4.00165 8.61998 3.10295 9.54278 2.0036 9.54505C0.903141 9.54676 0.00165462 8.62851 -0.00056839 7.50399C-0.00223589 6.3789 0.89536 5.45724 1.99526 5.45497H1.99582ZM2.00304 10.9099C3.10184 10.9111 4.0011 11.8333 3.99999 12.9578C3.99888 14.0812 3.09628 15.0017 1.99693 15C0.897583 14.9983 -0.00112438 14.0766 -1.28746e-05 12.9516C0.00109887 11.827 0.90203 10.9088 2.00304 10.9099Z" fill="white"/>
<path d="M1.99082 4.0901C3.09072 4.09407 3.9961 3.17696 3.99999 2.05415C4.00388 0.928492 3.10739 0.00399049 2.0086 1.29134e-05C0.907032 -0.00396466 0.00332189 0.911446 -0.00056839 2.03539C-0.0044589 3.16105 0.890914 4.08555 1.99026 4.0901H1.99082Z" fill="#212121"/>
<path d="M1.99583 5.45496C0.895926 5.45723 -0.00166941 6.37833 -1.90735e-06 7.50398C0.00166535 8.6285 0.903708 9.54675 2.00417 9.54504C3.10296 9.54277 4.00167 8.61997 4 7.49546C3.99833 6.37208 3.09518 5.45269 1.99583 5.45496Z" fill="#212121"/>
<path d="M2.0025 10.9099C0.901486 10.9088 0.00111055 11.827 -0.000556946 12.9515C-0.00166845 14.0766 0.897039 14.9983 1.99639 15C3.09629 15.0011 3.99889 14.0812 4 12.9578C4.00111 11.8333 3.10185 10.911 2.0025 10.9099Z" fill="#212121"/>
</g>
<defs>
<clipPath id="clip0_2001_109">
<rect width="4" height="15" fill="white" transform="matrix(-1 0 0 1 4 0)"/>
</clipPath>
</defs>
</svg>
