<svg width="32" height="32" viewBox="0 0 32 32" fill="none" xmlns="http://www.w3.org/2000/svg">
<path d="M17 28V24.31L23.63 17.71C23.81 17.53 24.01 17.4 24.23 17.32C24.45 17.24 24.67 17.2 24.89 17.2C25.13 17.2 25.36 17.245 25.58 17.335C25.8 17.425 26 17.56 26.18 17.74L27.29 18.85C27.47 19.03 27.6 19.23 27.68 19.45C27.76 19.67 27.8 19.89 27.8 20.11C27.8 20.33 27.755 20.555 27.665 20.785C27.575 21.015 27.4409 21.22 27.2627 21.4L20.69 28H17ZM18.8 26.2H19.94L23.57 22.54L23.03 21.97L22.46 21.43L18.8 25.06V26.2ZM6.8 28C6.32 28 5.9 27.82 5.54 27.46C5.18 27.1 5 26.68 5 26.2V5.8C5 5.32 5.18 4.9 5.54 4.54C5.9 4.18 6.32 4 6.8 4H17L24.2 11.2V14.68H22.4V12.4H15.8V5.8H6.8V26.2H15.2V28H6.8ZM23.03 21.97L22.46 21.43L23.57 22.54L23.03 21.97Z" fill="#003B95"/>
</svg>
