<svg width="26" height="26" viewBox="0 0 26 26" fill="none" xmlns="http://www.w3.org/2000/svg">
<g clip-path="url(#clip0_2001_116)">
<path d="M11.5344 23.0003C11.2402 22.8981 11.1417 22.6782 11.1423 22.3742C11.1463 20.0419 11.1409 17.7097 11.1483 15.3775C11.1495 15.0048 11.0303 14.7091 10.7839 14.4373C8.93388 12.3979 7.09028 10.3524 5.24527 8.30831C4.91005 7.9368 4.91606 7.46885 5.27709 7.17357C5.38516 7.08508 5.54167 7.05648 5.67855 7.00805C5.71978 6.99354 5.76961 7.00396 5.81544 7.00396C10.4449 7.00396 15.0743 7.00396 19.7035 7.00396C20.1248 7.00396 20.4064 7.2034 20.4926 7.57164C20.5587 7.85282 20.4742 8.09007 20.2821 8.30013C19.781 8.84799 19.2857 9.40136 18.7881 9.95249C17.4232 11.4643 16.0593 12.9772 14.6921 14.487C14.4727 14.7291 14.369 15.0025 14.3704 15.334C14.3764 16.7344 14.3686 18.1348 14.3762 19.5352C14.378 19.8652 14.2874 20.1427 14.0746 20.3904C13.3856 21.1924 12.7034 22.001 12.0135 22.8025C11.9429 22.8844 11.8376 22.9353 11.7485 23.0007H11.5344V23.0003Z" fill="#003B95"/>
</g>
<circle cx="13" cy="13" r="12.5" stroke="#003B95"/>
<defs>
<clipPath id="clip0_2001_116">
<rect width="15.5152" height="16" fill="white" transform="translate(5 7)"/>
</clipPath>
</defs>
</svg>
