<svg width="18" height="18" viewBox="0 0 18 18" fill="none" xmlns="http://www.w3.org/2000/svg">
<path d="M0.565765 8.9886C0.565765 4.46615 4.24816 0.795269 8.7706 0.818284C13.3045 0.841299 16.9409 4.48917 16.9409 9.01161C16.9409 13.534 13.247 17.2049 8.73608 17.1934C4.20213 17.1704 0.565765 13.511 0.565765 8.9886ZM16.0778 8.9886C16.0778 4.94947 12.7867 1.66984 8.74758 1.66984C4.69695 1.66984 1.41732 4.96098 1.42883 9.01161C1.44033 13.0507 4.74298 16.3419 8.75909 16.3189C12.8097 16.2958 16.0778 13.0162 16.0778 8.9886Z" fill="#003B95" stroke="#003B95" stroke-width="0.2"/>
<path d="M8.31029 12.015V8.57421C8.1722 8.57421 8.04562 8.57421 7.91904 8.57421C7.64286 8.57421 7.45874 8.39009 7.45874 8.13693C7.45874 7.89527 7.64286 7.71115 7.91904 7.69965C8.1722 7.69965 8.42537 7.69965 8.69004 7.69965C9.02376 7.69965 9.18486 7.87226 9.18486 8.20598C9.18486 9.39125 9.18486 10.5765 9.18486 11.7618V12.015C9.32295 12.015 9.44953 12.015 9.58762 12.015C9.8638 12.015 10.0479 12.1991 10.0479 12.4407C10.0479 12.6939 9.87531 12.8665 9.58762 12.8665C9.03527 12.8665 8.48291 12.8665 7.93055 12.8665C7.65437 12.8665 7.47025 12.6824 7.47025 12.4407C7.47025 12.1991 7.66588 12.015 7.93055 12.015C8.05713 12.015 8.18371 12.015 8.3218 12.015H8.31029Z" fill="#003B95"/>
<path d="M8.74758 6.8481C8.27578 6.8481 7.88452 6.45684 7.88452 5.99654C7.88452 5.52474 8.27578 5.13348 8.73607 5.13348C9.20788 5.13348 9.59914 5.52474 9.59914 5.99654C9.59914 6.46835 9.20788 6.85961 8.73607 6.85961L8.74758 6.8481Z" fill="#003B95"/>
</svg>
