<svg width="32" height="32" viewBox="0 0 32 32" fill="none" xmlns="http://www.w3.org/2000/svg">
<g clip-path="url(#clip0_1_1951)">
<path d="M16 0C28.8013 0 32 3.19867 32 16C32 28.8013 28.8013 32 16 32C3.19867 32 0 28.8013 0 16C0 3.19867 3.19867 0 16 0ZM13.3747 24.752C16.74 24.756 19.5133 21.992 19.52 18.6253C19.52 15.264 16.7547 12.4987 13.3933 12.4987C10.032 12.4987 7.26667 15.2653 7.26667 18.6253C7.26667 21.98 10.02 24.7427 13.3747 24.752ZM24.5 24.5V7.5H7.5V10.496H21.4973V24.5H24.5ZM13.3747 15.5027C13.7849 15.5028 14.1911 15.5838 14.5701 15.741C14.949 15.8981 15.2933 16.1284 15.5833 16.4186C15.8732 16.7088 16.1032 17.0533 16.26 17.4324C16.4169 17.8115 16.4975 18.2178 16.4973 18.628C16.4972 19.0382 16.4162 19.4444 16.259 19.8234C16.1019 20.2024 15.8716 20.5466 15.5814 20.8366C15.2912 21.1266 14.9467 21.3565 14.5676 21.5134C14.1885 21.6702 13.7823 21.7508 13.372 21.7507C12.5435 21.7503 11.749 21.4208 11.1634 20.8347C10.5778 20.2486 10.249 19.4539 10.2493 18.6253C10.2497 17.7968 10.5792 17.0023 11.1653 16.4167C11.7514 15.8311 12.5461 15.5023 13.3747 15.5027Z" fill="#003B95"/>
</g>
<defs>
<clipPath id="clip0_1_1951">
<rect width="32" height="32" fill="white"/>
</clipPath>
</defs>
</svg>
