<svg width="16" height="16" viewBox="0 0 16 16" fill="none" xmlns="http://www.w3.org/2000/svg">
<path d="M11.4961 9.92188C12.0039 9.12292 12.3018 8.175 12.3018 7.15599C12.3018 4.30885 9.99635 2 7.1526 2C4.30547 2 2 4.30885 2 7.15599C2 10.0031 4.30547 12.312 7.14922 12.312C8.18177 12.312 9.14323 12.0073 9.94896 11.4859L10.1826 11.3234L13.2784 14.4192C13.5983 14.7392 14.1176 14.7369 14.4347 14.4141C14.7478 14.0955 14.7456 13.5842 14.4299 13.2682L11.3268 10.1622L11.4961 9.92188ZM10.037 4.275C10.8055 5.04349 11.2286 6.06589 11.2286 7.1526C11.2286 8.23932 10.8055 9.26172 10.037 10.0302C9.26849 10.7987 8.24609 11.2219 7.15938 11.2219C6.07266 11.2219 5.05026 10.7987 4.28177 10.0302C3.51328 9.26172 3.0901 8.23932 3.0901 7.1526C3.0901 6.06589 3.51328 5.04349 4.28177 4.275C5.05026 3.50651 6.07266 3.08333 7.15938 3.08333C8.24609 3.08333 9.26849 3.50651 10.037 4.275Z" fill="#B7B7B7"/>
</svg>
