<svg width="12" height="14" viewBox="0 0 12 14" fill="none" xmlns="http://www.w3.org/2000/svg">
<path d="M5.59991 6.53299C7.296 6.53299 8.99208 6.5326 10.6882 6.53299C11.0508 6.53299 11.2856 6.83492 11.1707 7.15242C11.1033 7.33903 10.9643 7.4411 10.768 7.4637C10.7201 7.46915 10.671 7.46604 10.6223 7.46604C7.2738 7.46604 3.92525 7.46604 0.577087 7.46487C0.490628 7.46487 0.400274 7.46175 0.318877 7.43682C0.103897 7.36981 -0.0254025 7.15476 0.00419626 6.93699C0.0341844 6.71882 0.216061 6.54935 0.43883 6.53416C0.487123 6.53065 0.535805 6.53299 0.584487 6.53299C2.25643 6.53299 3.92797 6.53299 5.59991 6.53299Z" fill="#003B95"/>
<path d="M5.13335 3.99763C5.13335 3.41014 5.13335 2.85655 5.13335 2.30295C5.13335 1.71507 5.13335 1.1268 5.13335 0.538926C5.13335 0.214015 5.316 0.00208317 5.59641 0.000135266C5.87643 -0.00181264 6.0661 0.212068 6.0661 0.532693C6.06649 1.62625 6.0661 2.7198 6.0661 3.81336V4.01321C6.20552 3.87141 6.31535 3.75843 6.42673 3.64701C6.65301 3.41988 6.87928 3.19237 7.10711 2.9668C7.31976 2.75642 7.60134 2.74513 7.79412 2.9368C7.98651 3.12808 7.97794 3.41209 7.76724 3.62402C7.16086 4.23411 6.55331 4.84302 5.94497 5.45116C5.73895 5.65725 5.46244 5.65998 5.25875 5.45622C4.64692 4.84458 4.03703 4.23138 3.42558 3.61935C3.29122 3.48494 3.23319 3.32911 3.28537 3.14211C3.33367 2.96797 3.45011 2.85694 3.6242 2.81447C3.8053 2.77006 3.95719 2.83006 4.08688 2.96056C4.40545 3.28119 4.72559 3.59987 5.04572 3.91933C5.06558 3.9388 5.087 3.95672 5.13257 3.99763H5.13335Z" fill="#003B95"/>
<path d="M5.09961 10.0188C4.75728 10.3632 4.4165 10.7096 4.07222 11.052C3.91683 11.2063 3.71976 11.2398 3.53711 11.1549C3.36575 11.0754 3.24501 10.8954 3.27422 10.7084C3.29136 10.6001 3.33965 10.4774 3.41443 10.4006C4.0286 9.77107 4.65095 9.14969 5.27447 8.52909C5.46024 8.34403 5.74104 8.34559 5.92876 8.5322C6.55228 9.15281 7.17347 9.77536 7.79192 10.4006C7.98509 10.5958 7.97925 10.8837 7.79153 11.0664C7.60382 11.2488 7.32419 11.2449 7.12556 11.0493C6.814 10.7423 6.50672 10.4314 6.1971 10.1221C6.16321 10.0882 6.12816 10.0562 6.06702 9.9982C6.06702 10.0761 6.06702 10.1264 6.06702 10.1766C6.06702 11.2651 6.06702 12.354 6.06624 13.4425C6.06624 13.5146 6.06429 13.5894 6.0456 13.6583C5.98523 13.8815 5.77259 14.0226 5.54826 13.9969C5.32549 13.9715 5.14634 13.7838 5.13583 13.5562C5.12921 13.4105 5.13388 13.2648 5.13388 13.1187C5.13388 12.1421 5.13388 11.165 5.13388 10.1883V10.0321C5.12259 10.0278 5.11129 10.0231 5.1 10.0188H5.09961Z" fill="#003B95"/>
</svg>
