<svg width="36" height="36" viewBox="0 0 36 36" fill="none" xmlns="http://www.w3.org/2000/svg">
<g clip-path="url(#clip0_2001_301)">
<path d="M18.3024 14.375C17.6711 14.3114 17.036 14.4485 16.484 14.7675C15.932 15.0865 15.4901 15.5718 15.2189 16.157C14.9476 16.7423 14.8601 17.3988 14.9685 18.0367C15.0769 18.6745 15.3759 19.2627 15.8244 19.7205C16.273 20.1783 16.8492 20.4834 17.4742 20.594C18.0992 20.7046 18.7424 20.6154 19.3158 20.3385C19.8892 20.0616 20.3648 19.6106 20.6773 19.0473C20.9899 18.4839 21.1242 17.8357 21.0618 17.1914C20.9907 16.4691 20.6772 15.7942 20.1743 15.2809C19.6714 14.7676 19.01 14.4476 18.3024 14.375ZM25.7105 17.5C25.7086 17.8413 25.684 18.1821 25.637 18.5201L27.8104 20.2599C27.905 20.34 27.9688 20.4517 27.9904 20.5752C28.0119 20.6988 27.9899 20.8261 27.9282 20.9346L25.8721 24.5654C25.8096 24.6729 25.712 24.7544 25.5965 24.7956C25.4809 24.8368 25.3548 24.835 25.2404 24.7906L23.0819 23.9035C22.9628 23.8552 22.8339 23.8377 22.7066 23.8527C22.5793 23.8677 22.4577 23.9146 22.3526 23.9894C22.0232 24.2209 21.677 24.4266 21.3171 24.6047C21.2039 24.6608 21.1061 24.7445 21.0321 24.8484C20.9582 24.9523 20.9104 25.0731 20.8931 25.2003L20.5695 27.5501C20.5483 27.6742 20.4855 27.7869 20.3918 27.8689C20.2982 27.951 20.1795 27.9973 20.0561 28H15.9439C15.8225 27.9979 15.7055 27.9536 15.6121 27.8745C15.5187 27.7954 15.4544 27.6861 15.43 27.5648L15.1069 25.2185C15.0888 25.0899 15.0398 24.9679 14.9643 24.8633C14.8888 24.7587 14.7892 24.6747 14.6743 24.6189C14.3148 24.4418 13.9698 24.2356 13.6426 24.0021C13.5379 23.9278 13.4166 23.8811 13.2898 23.8665C13.163 23.8518 13.0346 23.8696 12.9162 23.9182L10.7582 24.8049C10.6438 24.8493 10.5178 24.8511 10.4022 24.81C10.2866 24.7689 10.189 24.6875 10.1265 24.5801L8.07039 20.9493C8.00857 20.8408 7.98648 20.7135 8.00805 20.5899C8.02962 20.4664 8.09345 20.3547 8.18817 20.2746L10.0251 18.8027C10.1257 18.7212 10.2048 18.6153 10.2552 18.4946C10.3055 18.374 10.3256 18.2424 10.3135 18.1118C10.2962 17.9072 10.2856 17.7031 10.2856 17.4985C10.2856 17.2939 10.2957 17.0928 10.3135 16.8926C10.3243 16.7628 10.3032 16.6323 10.2523 16.5129C10.2013 16.3935 10.1221 16.289 10.0217 16.2086L8.18577 14.7366C8.09258 14.6562 8.0301 14.5449 8.00927 14.4222C7.98844 14.2994 8.01058 14.1731 8.07183 14.0654L10.1279 10.4346C10.1904 10.3271 10.288 10.2456 10.4035 10.2044C10.5191 10.1632 10.6452 10.165 10.7596 10.2094L12.9181 11.0965C13.0372 11.1448 13.1661 11.1623 13.2934 11.1473C13.4207 11.1323 13.5423 11.0854 13.6474 11.0106C13.9768 10.7791 14.323 10.5734 14.6829 10.3953C14.7961 10.3392 14.8939 10.2555 14.9679 10.1516C15.0418 10.0477 15.0896 9.92685 15.1069 9.79967L15.4305 7.44993C15.4517 7.32583 15.5145 7.21312 15.6082 7.13106C15.7018 7.04899 15.8205 7.00267 15.9439 7H20.0561C20.1775 7.00214 20.2945 7.04642 20.3879 7.12553C20.4813 7.20464 20.5456 7.31386 20.57 7.43521L20.8931 9.78152C20.9112 9.9101 20.9602 10.0321 21.0357 10.1367C21.1112 10.2413 21.2108 10.3253 21.3257 10.3811C21.6852 10.5582 22.0302 10.7644 22.3574 10.9979C22.4621 11.0722 22.5834 11.1189 22.7102 11.1335C22.837 11.1482 22.9654 11.1304 23.0838 11.0818L25.2418 10.1951C25.3562 10.1507 25.4822 10.1489 25.5978 10.19C25.7133 10.2311 25.811 10.3125 25.8735 10.4199L27.9296 14.0507C27.9914 14.1592 28.0135 14.2865 27.9919 14.4101C27.9704 14.5336 27.9066 14.6453 27.8118 14.7254L25.9749 16.1973C25.8739 16.2786 25.7943 16.3844 25.7435 16.505C25.6927 16.6257 25.6723 16.7574 25.6841 16.8882C25.7 17.0913 25.7105 17.2954 25.7105 17.5Z" stroke="white" stroke-width="2" stroke-linecap="round" stroke-linejoin="round"/>
</g>
<defs>
<clipPath id="clip0_2001_301">
<rect width="22" height="23" fill="white" transform="translate(7 6)"/>
</clipPath>
</defs>
</svg>
