<svg width="36" height="36" viewBox="0 0 36 36" fill="none" xmlns="http://www.w3.org/2000/svg">
<path d="M6 20.8087C6.08578 20.6013 6.14526 20.377 6.26297 20.1897C6.56225 19.7122 7.01994 19.4848 7.611 19.4478C7.611 19.3608 7.611 19.2781 7.611 19.1954C7.611 18.4842 7.60974 17.7731 7.611 17.062C7.61225 16.4956 7.88148 16.2256 8.44248 16.2249C9.41859 16.2243 10.3947 16.2249 11.3714 16.2249C11.4547 16.2249 11.538 16.2249 11.6469 16.2249C11.6469 15.9555 11.6595 15.7143 11.6451 15.475C11.5818 14.4399 12.0514 13.6743 12.8466 13.0716C13.5034 12.5735 14.251 12.2671 15.0355 12.0403C15.1544 12.0058 15.2747 11.9751 15.4011 11.9407C13.8941 10.2202 14.3799 7.93083 15.753 6.80243C17.1217 5.6778 19.1178 5.7392 20.4194 6.9622C21.6867 8.15262 22.0079 10.2941 20.5935 11.9306C20.8296 12.0008 21.0568 12.0635 21.281 12.1368C22.0743 12.3949 22.8187 12.7464 23.4423 13.3159C24.0434 13.8654 24.3828 14.5308 24.3508 15.3641C24.3402 15.6366 24.3489 15.9104 24.3489 16.2249C24.4523 16.2249 24.5418 16.2249 24.6313 16.2249C25.6074 16.2249 26.5836 16.2243 27.5603 16.2249C28.1069 16.2249 28.3824 16.4981 28.3849 17.0451C28.3874 17.7562 28.3855 18.4673 28.3855 19.1784C28.3855 19.2624 28.3855 19.3463 28.3855 19.4322C28.5464 19.4616 28.6861 19.4779 28.82 19.5136C29.4944 19.6947 29.979 20.3081 29.994 21.0098C30.004 21.4866 29.999 21.9634 29.9965 22.4402C29.9915 23.3418 29.4017 23.9909 28.5013 24.0892C28.4719 24.0924 28.4419 24.098 28.3861 24.1068C28.3861 24.2026 28.3861 24.2941 28.3861 24.385C28.3861 25.94 28.3768 27.4957 28.3924 29.0508C28.3968 29.4975 28.2647 29.8221 27.8414 30H8.15572C7.73497 29.8221 7.60035 29.5 7.60473 29.0539C7.62039 27.4951 7.611 25.9356 7.611 24.3762C7.611 24.286 7.611 24.1951 7.611 24.1099C6.83086 23.9996 6.37504 23.6901 6.13211 23.1206C6.0839 23.0078 6.04383 22.8919 6 22.7773C6 22.1207 6 21.464 6 20.8074V20.8087ZM26.978 17.6516H9.01725C9.01725 18.218 9.02414 18.7637 9.01349 19.3094C9.00974 19.4879 9.05795 19.5738 9.23326 19.654C10.133 20.0675 10.627 20.7868 10.6257 21.7754C10.6245 22.7641 10.1299 23.4802 9.23013 23.8956C9.07172 23.9689 9.01224 24.0422 9.01287 24.2189C9.02101 25.5867 9.01725 26.9544 9.01725 28.3221C9.01725 28.4055 9.01725 28.4888 9.01725 28.5803H26.9786C26.9786 28.4882 26.9786 28.4048 26.9786 28.3215C26.9786 26.9538 26.9749 25.586 26.983 24.2183C26.9843 24.041 26.9254 23.9646 26.7645 23.8963C25.7903 23.4809 25.2293 22.4703 25.3952 21.4258C25.5311 20.5712 26.0175 19.9817 26.8014 19.6264C26.8722 19.5945 26.9686 19.5105 26.9699 19.4491C26.9824 18.8564 26.9774 18.2637 26.9774 17.6509L26.978 17.6516ZM17.2951 13.0478C16.7479 13.1405 16.2295 13.2031 15.723 13.3197C14.966 13.4932 14.2416 13.7595 13.623 14.2513C13.3763 14.4474 13.1233 14.6705 13.0883 14.9944C13.0457 15.3923 13.0782 15.7983 13.0782 16.2112H22.9421C22.9421 15.9818 22.9214 15.7632 22.9458 15.5495C23.0228 14.8873 22.6998 14.4456 22.182 14.1066C21.1326 13.4199 19.9492 13.1869 18.7008 13.0772C18.7008 13.1737 18.7008 13.2501 18.7008 13.3266C18.7008 13.7564 18.707 14.1862 18.6983 14.616C18.6907 14.9944 18.4071 15.2876 18.0415 15.3158C17.7065 15.3415 17.3809 15.094 17.3102 14.7494C17.2901 14.6511 17.2951 14.5477 17.2951 14.4462C17.2939 13.9951 17.2951 13.544 17.2951 13.0484V13.0478ZM20.1139 9.52474C20.1139 8.35562 19.1685 7.40516 18.0033 7.40203C16.8393 7.3989 15.887 8.34748 15.8826 9.51409C15.8782 10.6945 16.8337 11.6562 18.0045 11.6493C19.1716 11.6431 20.1139 10.6939 20.1139 9.52474ZM28.5903 21.7773C28.5903 21.5505 28.5903 21.3237 28.5903 21.0975C28.5903 20.944 28.5126 20.8632 28.3617 20.8613C28.1119 20.8588 27.8608 20.8475 27.6123 20.867C27.1208 20.9058 26.7557 21.3168 26.7676 21.7942C26.7802 22.2854 27.1727 22.6714 27.6755 22.6833C27.8865 22.6883 28.0975 22.6789 28.3079 22.6858C28.5051 22.6927 28.5978 22.6112 28.5909 22.4095C28.584 22.199 28.5896 21.9872 28.589 21.7767L28.5903 21.7773ZM7.40688 21.7685C7.40688 21.9797 7.41252 22.1908 7.405 22.4013C7.39812 22.5975 7.47575 22.6927 7.67924 22.6858C7.88962 22.6789 8.10124 22.6877 8.31162 22.6833C8.82691 22.6726 9.22512 22.2779 9.22888 21.7786C9.23201 21.2911 8.8507 20.8895 8.34543 20.8626C8.1194 20.8507 7.89275 20.8607 7.66609 20.8582C7.47763 20.8563 7.39937 20.949 7.40438 21.1345C7.41064 21.3456 7.40563 21.5568 7.40563 21.7673L7.40688 21.7685Z" fill="white" stroke="white" stroke-width="0.3"/>
<path d="M18.0099 19.2417C19.5577 19.2417 21.1056 19.2417 22.6534 19.2417C23.163 19.2417 23.3772 19.4881 23.3783 20.0767C23.3794 20.9025 23.3799 21.7283 23.3783 22.5547C23.3772 23.1255 23.1561 23.3793 22.6635 23.3793C19.5546 23.3793 16.4456 23.3793 13.3367 23.3793C12.8435 23.3793 12.6229 23.1261 12.6219 22.5547C12.6203 21.7209 12.6203 20.8878 12.6219 20.054C12.6229 19.4973 12.8451 19.2423 13.3266 19.2417C14.8877 19.241 16.4488 19.2417 18.0099 19.2417ZM13.8187 21.9833H22.1751V20.6389H13.8187V21.9833Z" fill="white"/>
<path d="M18.0014 25.8617C16.4457 25.8617 14.8901 25.8639 13.3339 25.858C13.205 25.858 13.0664 25.8344 12.9491 25.7658C12.7204 25.6332 12.5994 25.2978 12.6238 24.9559C12.6487 24.6117 12.8143 24.3302 13.0574 24.2484C13.1588 24.2144 13.2671 24.2086 13.3716 24.2086C16.4569 24.2063 19.5416 24.2063 22.6269 24.2086C22.732 24.2086 22.8402 24.2137 22.9416 24.2484C23.2271 24.3464 23.405 24.7134 23.3763 25.1188C23.3482 25.5131 23.1311 25.8174 22.8471 25.8543C22.768 25.8646 22.6884 25.8617 22.6088 25.8617C21.0728 25.8617 19.5368 25.8617 18.0014 25.8617Z" fill="white"/>
</svg>
