<svg width="11" height="14" viewBox="0 0 11 14" fill="none" xmlns="http://www.w3.org/2000/svg">
<path d="M2.29327 1.98563C1.91705 2.36429 1.58658 2.70352 1.24832 3.03496C1.02833 3.25057 0.716352 3.26712 0.484196 3.09142C0.26226 2.92302 0.187308 2.62224 0.31385 2.37353C0.348893 2.30491 0.399996 2.24066 0.454994 2.18567C1.11447 1.52327 1.77542 0.861351 2.4383 0.20187C2.70648 -0.0648423 3.04181 -0.0682492 3.3095 0.19749C3.97774 0.860378 4.64306 1.52619 5.30644 2.19394C5.55903 2.44849 5.56341 2.80475 5.32736 3.03934C5.09083 3.27442 4.73748 3.26712 4.48196 3.01452C4.15101 2.68746 3.82492 2.35504 3.45892 1.98807V2.24699C3.45892 5.92646 3.45892 9.60592 3.45746 13.2854C3.45746 13.3871 3.45356 13.4937 3.42485 13.5905C3.346 13.8587 3.07929 14.0257 2.80674 13.9931C2.53564 13.9604 2.31614 13.7322 2.29473 13.4577C2.28937 13.3915 2.29229 13.3243 2.29229 13.2572C2.29229 9.58986 2.29229 5.92256 2.29229 2.25478V1.98563H2.29327Z" fill="#212121"/>
<path d="M7.54149 11.9931V11.7474C7.54149 8.06789 7.54149 4.38794 7.54247 0.708479C7.54247 0.612599 7.54539 0.512338 7.57069 0.420838C7.64711 0.148285 7.90311 -0.0201133 8.18004 0.00616856C8.45844 0.0329372 8.68427 0.26412 8.7052 0.547868C8.71006 0.614546 8.70714 0.681224 8.70714 0.748389C8.70714 4.41569 8.70714 8.08347 8.70714 11.7508V12.0082C9.04443 11.6705 9.34716 11.3668 9.65037 11.064C9.97354 10.7404 10.3133 10.7019 10.5736 10.9594C10.835 11.2173 10.8 11.5624 10.4797 11.8832C9.85722 12.5056 9.23473 13.1286 8.61126 13.7506C8.27739 14.084 7.97028 14.083 7.63543 13.7487C6.98665 13.1004 6.33593 12.4545 5.69105 11.8028C5.35182 11.4602 5.49053 10.9224 5.94219 10.809C6.16072 10.754 6.35005 10.8173 6.50822 10.975C6.80073 11.2665 7.09227 11.5585 7.38477 11.8501C7.42566 11.8909 7.46995 11.9284 7.54003 11.9931H7.54149Z" fill="#212121"/>
</svg>
