<svg width="36" height="36" viewBox="0 0 36 36" fill="none" xmlns="http://www.w3.org/2000/svg">
<path d="M8.66667 29C7.93334 29 7.30534 28.7387 6.78267 28.216C6.26 27.6933 5.99911 27.0658 6 26.3333V7.66667C6 6.93334 6.26134 6.30534 6.784 5.78267C7.30667 5.26 7.93422 4.99911 8.66667 5H27.3333C28.0667 5 28.6947 5.26134 29.2173 5.784C29.74 6.30667 30.0009 6.93422 30 7.66667V26.3333C30 27.0667 29.7387 27.6947 29.216 28.2173C28.6933 28.74 28.0658 29.0009 27.3333 29H8.66667ZM8.66667 26.3333H16.6667V7.66667H8.66667V26.3333ZM19.3333 26.3333H27.3333V17H19.3333V26.3333ZM19.3333 14.3333H27.3333V7.66667H19.3333V14.3333Z" fill="white"/>
</svg>
